# xmcd CD database file
#
# Track frame offsets:
#	150
#	14963
#	30160
#	44291
#	59138
#	74003
#	88836
#	103712
#	128767
#	143739
#	154666
#	166076
#	184644
#	200662
#	217935
#	230376
#	241868
#	259468
#	269327
#	285060
#	305153
#	320607
#
# Disc length: 4440 seconds
#
# Revision: 1
# Processed by: cddbd v1.5.2PL0 Copyright (c) Steve Scherf et al.
# Submitted via: CDex 1.51
#
DISCID=43115616
DTITLE=Duke Ellington - Reader's Digest - CD3 - Le Génie d'Ellington
DYEAR=1900
DGENRE=Jazz
TTITLE0=Crescendo in Blue
TTITLE1=Blue Serge
TTITLE2=The Flaming Sword
TTITLE3=In a Mellotone
TTITLE4=Jack the Bear
TTITLE5=Concerto for Cootie
TTITLE6=Melancholia
TTITLE7=Happy Go Lucky Local
TTITLE8=Memphis Blues
TTITLE9=A Day in the Life of a Fool
TTITLE10=Kinda Dukish
TTITLE11=Beale Street Blues
TTITLE12=Reflexions in D
TTITLE13=One Note Samba
TTITLE14=Walkin' Happy
TTITLE15=New Orleans
TTITLE16=La dolce vita
TTITLE17=Mr. Lucky
TTITLE18=Alfie
TTITLE19=Amad (extrait de Far East Suite)
TTITLE20=Summer Samba
TTITLE21=B Sharp Blues
EXTD=
EXTT0=
EXTT1=
EXTT2=
EXTT3=
EXTT4=
EXTT5=
EXTT6=
EXTT7=
EXTT8=
EXTT9=
EXTT10=
EXTT11=
EXTT12=
EXTT13=
EXTT14=
EXTT15=
EXTT16=
EXTT17=
EXTT18=
EXTT19=
EXTT20=
EXTT21=
PLAYORDER=
